<svg viewBox="0 0 24 24" xmlns="http://www.w3.org/2000/svg" xmlns:xlink="http://www.w3.org/1999/xlink" width="24.000000" height="24.000000" fill="none" customFrame="#000000">
	<rect id="多选框/选中" width="24.000000" height="24.000000" x="0.000000" y="0.000000" />
	<rect id="矩形" width="16.000000" height="16.000000" x="4.000000" y="4.000000" rx="4.000000" fill="rgb(0,47,167)" />
	<rect id="矩形" width="15.000000" height="15.000000" x="4.500000" y="4.500000" rx="3.500000" stroke="rgb(36,36,36)" stroke-opacity="0" stroke-width="1.000000" />
	<g id="组合 8">
		<path id="Rectangle 62" d="M4.79974 0C4.3579 0 3.99974 0.35816 3.99974 0.8L3.99974 7.39986L0.8 7.39986C0.35816 7.39986 -0 7.75804 -0 8.19986C0 8.64168 0.35816 8.99986 0.8 8.99986L4.7844 8.99986C4.7895 8.99996 4.79462 9 4.79974 9C4.9378 9 5.0677 8.96502 5.18106 8.90344C5.1901 8.89854 5.19902 8.89346 5.20784 8.88822C5.44262 8.74882 5.6 8.49272 5.6 8.19986C5.6 8.19302 5.59992 8.1862 5.59974 8.17942L5.59974 0.8C5.59974 0.35816 5.24156 0 4.79974 0Z" fill="rgb(255,255,255)" fill-rule="evenodd" transform="matrix(0.731354,0.681998,-0.681998,0.731354,12.9382,5.6001)" />
		<path id="Rectangle 62" d="M4.79974 -1Q5.17253 -1 5.49073 -0.868199Q5.80892 -0.7364 6.07252 -0.472803Q6.33613 -0.209203 6.46793 0.108992Q6.59974 0.427197 6.59974 0.8L6.59974 8.16906Q6.6 8.18429 6.6 8.19986Q6.6 8.71188 6.37994 9.09873Q6.15959 9.48611 5.71856 9.74796Q5.68812 9.76605 5.65841 9.78216Q5.46253 9.88856 5.25315 9.94299Q5.03385 10 4.79974 10Q4.78405 10 4.78405 9.99989L4.7844 9.99986L0.8 9.99986Q0.427195 9.99986 0.108988 9.86805Q-0.209205 9.73625 -0.472803 9.47264Q-0.7364 9.20904 -0.868199 8.89085Q-1 8.57265 -1 8.19986Q-1 7.82707 -0.868199 7.50887Q-0.736398 7.19068 -0.472803 6.92708Q-0.209206 6.66347 0.108986 6.53167Q0.427193 6.39986 0.8 6.39986L2.99974 6.39986L2.99974 0.799999Q2.99974 0.427176 3.13156 0.108958Q3.26336 -0.209214 3.52694 -0.472797Q3.79053 -0.73638 4.1087 -0.868181Q4.42692 -1 4.79974 -1ZM3.99974 0.8C3.99974 0.35816 4.3579 0 4.79974 0C5.24156 0 5.59974 0.35816 5.59974 0.8L5.59974 8.17942C5.59992 8.1862 5.6 8.19302 5.6 8.19986C5.6 8.49272 5.44262 8.74882 5.20784 8.88822C5.19902 8.89346 5.1901 8.89854 5.18106 8.90344C5.0677 8.96502 4.9378 9 4.79974 9L4.7844 8.99986L0.8 8.99986C0.35816 8.99986 0 8.64168 0 8.19986C0 7.75804 0.35816 7.39986 0.8 7.39986L3.99974 7.39986L3.99974 0.8Z" fill="rgb(255,255,255)" fill-opacity="0" fill-rule="evenodd" transform="matrix(0.731354,0.681998,-0.681998,0.731354,12.9382,5.6001)" />
	</g>
</svg>
