<svg viewBox="0 0 24 24" xmlns="http://www.w3.org/2000/svg" xmlns:xlink="http://www.w3.org/1999/xlink" width="24.000000" height="24.000000" fill="none" customFrame="#000000">
	<rect id="icon/01公共图标/面性/成功" width="24.000000" height="24.000000" x="0.000000" y="0.000000" />
	<g id="编组 46">
		<rect id="矩形" width="24.000000" height="24.000000" x="0.000000" y="0.000000" fill="rgb(216,216,216)" fill-opacity="0" />
		<rect id="矩形" width="23.000000" height="23.000000" x="0.500000" y="0.500000" stroke="rgb(151,151,151)" stroke-opacity="0" stroke-width="1.000000" />
		<circle id="椭圆形" cx="12" cy="12" r="9" fill="rgb(19,189,90)" />
		<circle id="椭圆形" cx="12" cy="12" r="8.5" stroke="rgb(151,151,151)" stroke-opacity="0" stroke-width="1.000000" />
		<path id="路径" d="M16.2809 8.75001C16.4764 8.55499 16.793 8.55538 16.988 8.75089C17.1614 8.92467 17.1803 9.19412 17.0451 9.38882L16.9872 9.45799L11.762 14.6703C11.3071 15.124 10.5897 15.1548 10.0992 14.7622L9.99772 14.6716L7.51949 12.2069C7.32369 12.0122 7.32282 11.6956 7.51755 11.4998C7.69064 11.3258 7.96001 11.3058 8.15525 11.4402L8.22465 11.4979L10.7029 13.9625C10.7842 14.0435 10.9073 14.0569 11.0025 14.0028L11.0557 13.9623L16.2809 8.75001Z" fill="rgb(255,255,255)" fill-rule="evenodd" />
	</g>
</svg>
