<svg viewBox="0 0 24 24" xmlns="http://www.w3.org/2000/svg" xmlns:xlink="http://www.w3.org/1999/xlink" width="24.000000" height="24.000000" fill="none" customFrame="#000000">
	<rect id="icon/01公共图标/面性/提示2" width="24.000000" height="24.000000" x="0.000000" y="0.000000" />
	<g id="编组 44">
		<rect id="矩形" width="24.000000" height="24.000000" x="0.000000" y="0.000000" fill="rgb(216,216,216)" fill-opacity="0" />
		<rect id="矩形" width="23.000000" height="23.000000" x="0.500000" y="0.500000" stroke="rgb(151,151,151)" stroke-opacity="0" stroke-width="1.000000" />
		<circle id="椭圆形" cx="12" cy="12" r="9" fill="rgb(5,142,240)" />
		<circle id="椭圆形" cx="12" cy="12" r="8.5" stroke="rgb(151,151,151)" stroke-opacity="0" stroke-width="1.000000" />
		<path id="形状结合" d="M13 8.40039C13 7.84811 12.5523 7.40039 12 7.40039C11.4477 7.40039 11 7.84811 11 8.40039C11 8.95267 11.4477 9.40039 12 9.40039C12.5523 9.40039 13 8.95267 13 8.40039ZM12.4919 10.9432C12.4496 10.71 12.2455 10.5331 12 10.5331C11.7239 10.5331 11.5 10.757 11.5 11.0331L11.5 16.5331L11.5081 16.623C11.5504 16.8562 11.7545 17.0331 12 17.0331C12.2761 17.0331 12.5 16.8093 12.5 16.5331L12.5 11.0331L12.4919 10.9432Z" fill="rgb(255,255,255)" fill-rule="evenodd" />
		<path id="形状结合" d="M12 7.40039C12.5523 7.40039 13 7.84811 13 8.40039C13 8.95267 12.5523 9.40039 12 9.40039C11.4477 9.40039 11 8.95267 11 8.40039C11 7.84811 11.4477 7.40039 12 7.40039ZM12 10.5331C12.2455 10.5331 12.4496 10.71 12.4919 10.9432L12.5 11.0331L12.5 16.5331L12.5 16.5341C12.4995 16.8098 12.2758 17.0331 12 17.0331C11.7545 17.0331 11.5504 16.8562 11.5081 16.623L11.5 16.5331L11.5 11.0331L11.5 11.0322C11.5005 10.7565 11.7242 10.5331 12 10.5331Z" fill="rgb(151,151,151)" fill-opacity="0" fill-rule="evenodd" />
	</g>
</svg>
