<svg viewBox="0 0 24 24" xmlns="http://www.w3.org/2000/svg" xmlns:xlink="http://www.w3.org/1999/xlink" width="24.000000" height="24.000000" fill="none" customFrame="#000000">
	<rect id="icon/01公共图标/面性/警示" width="24.000000" height="24.000000" x="0.000000" y="0.000000" />
	<g id="编组 43">
		<rect id="矩形" width="24.000000" height="24.000000" x="0.000000" y="0.000000" fill="rgb(216,216,216)" fill-opacity="0" />
		<rect id="矩形" width="23.000000" height="23.000000" x="0.500000" y="0.500000" stroke="rgb(151,151,151)" stroke-opacity="0" stroke-width="1.000000" />
		<circle id="椭圆形" cx="12" cy="12" r="9" fill="rgb(250,115,5)" />
		<circle id="椭圆形" cx="12" cy="12" r="8.5" stroke="rgb(151,151,151)" stroke-opacity="0" stroke-width="1.000000" />
		<path id="形状结合" d="M2 1C2 0.447715 1.55228 0 1 0C0.447715 0 0 0.447715 0 1C0 1.55228 0.447715 2 1 2C1.55228 2 2 1.55228 2 1ZM1.56068 9.65024C1.66524 9.65024 1.75 9.56548 1.75 9.46092L1.75 3.90024C1.75 3.48602 1.41421 3.15024 1 3.15024C0.585786 3.15024 0.25 3.48602 0.25 3.90024L0.25 9.46092C0.25 9.56548 0.334762 9.65024 0.43932 9.65024L1.56068 9.65024Z" fill="rgb(255,255,255)" fill-rule="evenodd" transform="matrix(1,0,0,-1,11,16.6709)" />
		<path id="形状结合" d="M1 0C1.55228 0 2 0.447715 2 1C2 1.55228 1.55228 2 1 2C0.447715 2 0 1.55228 0 1C0 0.447715 0.447715 0 1 0ZM1.75 9.46092C1.75 9.56548 1.66524 9.65024 1.56068 9.65024L0.43932 9.65024C0.334762 9.65024 0.25 9.56548 0.25 9.46092L0.25 3.90024C0.25 3.48602 0.585786 3.15024 1 3.15024C1.41421 3.15024 1.75 3.48602 1.75 3.90024L1.75 9.46092Z" fill="rgb(151,151,151)" fill-opacity="0" fill-rule="evenodd" transform="matrix(1,0,0,-1,11,16.6709)" />
	</g>
</svg>
