<svg viewBox="0 0 24 24" xmlns="http://www.w3.org/2000/svg" xmlns:xlink="http://www.w3.org/1999/xlink" width="24.000000" height="24.000000" fill="none" customFrame="#000000">
	<rect id="icon/01公共图标/面性/错误" width="24.000000" height="24.000000" x="0.000000" y="0.000000" />
	<g id="编组 45">
		<rect id="矩形" width="24.000000" height="24.000000" x="0.000000" y="0.000000" fill="rgb(216,216,216)" fill-opacity="0" />
		<rect id="矩形" width="23.000000" height="23.000000" x="0.500000" y="0.500000" stroke="rgb(151,151,151)" stroke-opacity="0" stroke-width="1.000000" />
		<circle id="椭圆形" cx="12" cy="12" r="9" fill="rgb(230,0,18)" />
		<circle id="椭圆形" cx="12" cy="12" r="8.5" stroke="rgb(151,151,151)" stroke-opacity="0" stroke-width="1.000000" />
		<path id="形状结合" d="M7.96529 7.96529C8.15028 7.78031 8.44415 7.77057 8.6406 7.93609L8.6724 7.96529L12.0001 11.2928L15.3276 7.96529C15.5229 7.77003 15.8394 7.77003 16.0347 7.96529C16.2197 8.15028 16.2294 8.44415 16.0639 8.6406L16.0347 8.6724L8.6724 16.0347C8.47714 16.23 8.16056 16.23 7.96529 16.0347C7.78031 15.8497 7.77057 15.5558 7.93609 15.3594L7.96529 15.3276L11.2928 12.0001L7.96529 8.6724L7.93609 8.6406C7.77057 8.44415 7.78031 8.15028 7.96529 7.96529ZM16.0347 15.3276L13.767 13.0597C13.5717 12.8644 13.255 12.8644 13.0597 13.0597C12.8644 13.255 12.8644 13.5717 13.0597 13.767L15.3276 16.0347L15.3594 16.0639C15.5558 16.2294 15.8497 16.2197 16.0347 16.0347C16.2197 15.8497 16.2294 15.5558 16.0639 15.3594L16.0347 15.3276Z" fill="rgb(255,255,255)" fill-rule="evenodd" />
	</g>
</svg>
