<svg viewBox="0 0 24 24" xmlns="http://www.w3.org/2000/svg" xmlns:xlink="http://www.w3.org/1999/xlink" width="24.000000" height="24.000000" fill="none" customFrame="#000000">
	<rect id="icon/01公共图标/线性/添加图片" width="24.000000" height="24.000000" x="0.000000" y="0.000000" />
	<g id="编组 4">
		<rect id="矩形" width="24.000000" height="24.000000" x="0.000000" y="0.000000" fill="rgb(216,216,216)" fill-opacity="0" />
		<path id="形状结合" d="M21.7193 5.98879C21.6436 5.00885 20.8244 4.23727 19.825 4.23727L4.17498 4.23727L4.02649 4.24299C3.04655 4.31874 2.27498 5.1379 2.27498 6.13727L2.27498 17.8384L2.28069 17.9868C2.35644 18.9668 3.17561 19.7383 4.17498 19.7383L19.825 19.7383L19.9735 19.7326C20.9535 19.6569 21.725 18.8377 21.725 17.8384L21.725 10.4351L21.7186 10.3401C21.702 10.2172 21.6534 10.1044 21.5816 10.0104C21.5541 9.97203 21.5224 9.93586 21.4863 9.9026C21.2022 9.6404 20.7594 9.65814 20.4972 9.94224L16.1906 14.607L12.0865 11.3721L11.9903 11.3084C11.7241 11.1618 11.387 11.2029 11.1635 11.4217L6.79882 15.6944L6.72409 15.7803C6.52437 16.0518 6.54489 16.4356 6.78828 16.6843L6.87426 16.759C7.14569 16.9587 7.52954 16.9382 7.77818 16.6948L11.7036 12.852L15.8332 16.1079L15.9228 16.1681C16.2012 16.3253 16.5579 16.2747 16.7809 16.0329L20.325 12.193L20.325 17.8384L20.317 17.9282C20.2746 18.1615 20.0705 18.3384 19.825 18.3384L4.17498 18.3384L4.0851 18.3303C3.85185 18.288 3.67498 18.0838 3.67498 17.8384L3.67498 6.13727L3.68303 6.0474C3.72537 5.81415 3.92952 5.63727 4.17498 5.63727L19.825 5.63727L19.9149 5.64533C20.1482 5.68767 20.325 5.89181 20.325 6.13727L20.325 7.44444L20.3314 7.53943C20.3778 7.8811 20.6706 8.14444 21.025 8.14444C21.4116 8.14444 21.725 7.83104 21.725 7.44444L21.725 6.13727L21.7193 5.98879ZM8.23785 10.1363C8.95195 10.1363 9.53201 9.57217 9.53201 8.87763C9.53201 8.18309 8.95195 7.61891 8.23785 7.61891C7.52376 7.61891 6.94369 8.18309 6.94369 8.87763C6.94369 9.57217 7.52376 10.1363 8.23785 10.1363Z" fill="rgb(0,0,0)" fill-opacity="0.800000012" fill-rule="evenodd" />
	</g>
</svg>
