<svg viewBox="0 0 24 24" xmlns="http://www.w3.org/2000/svg" xmlns:xlink="http://www.w3.org/1999/xlink" width="24.000000" height="24.000000" fill="none" customFrame="#000000">
	<rect id="icon/01公共图标/线性/排列方式3" width="24.000000" height="24.000000" x="0.000000" y="0.000000" />
	<g id="编组 8">
		<rect id="矩形" width="24.000000" height="24.000000" x="0.000000" y="0.000000" fill="rgb(216,216,216)" fill-opacity="0" />
		<rect id="矩形" width="23.000000" height="23.000000" x="0.500000" y="0.500000" stroke="rgb(151,151,151)" stroke-opacity="0" stroke-width="1.000000" />
		<path id="形状结合" d="M4.9215 3.17256L9.4616 3.17256C10.4281 3.17256 11.2116 3.95606 11.2116 4.92256L11.2116 9.44496C11.2116 10.4115 10.4281 11.195 9.4616 11.195L4.9215 11.195C3.955 11.195 3.1715 10.4115 3.1715 9.44496L3.1715 4.92256C3.1715 3.95606 3.955 3.17256 4.9215 3.17256ZM14.5616 3.19308L19.1017 3.19308C20.0682 3.19308 20.8517 3.97658 20.8517 4.94308L20.8517 9.46548C20.8517 10.432 20.0682 11.2155 19.1017 11.2155L14.5616 11.2155C13.5951 11.2155 12.8116 10.432 12.8116 9.46548L12.8116 4.94308C12.8116 3.97658 13.5951 3.19308 14.5616 3.19308ZM9.8116 4.92256C9.8116 4.72926 9.6549 4.57256 9.4616 4.57256L4.9215 4.57256C4.7282 4.57256 4.5715 4.72926 4.5715 4.92256L4.5715 9.44496C4.5715 9.63826 4.7282 9.79496 4.9215 9.79496L9.4616 9.79496C9.6549 9.79496 9.8116 9.63826 9.8116 9.44496L9.8116 4.92256ZM19.4517 4.94308C19.4517 4.74978 19.295 4.59308 19.1017 4.59308L14.5616 4.59308C14.3683 4.59308 14.2116 4.74978 14.2116 4.94308L14.2116 9.46548C14.2116 9.65878 14.3683 9.81548 14.5616 9.81548L19.1017 9.81548C19.295 9.81548 19.4517 9.65878 19.4517 9.46548L19.4517 4.94308ZM4.9026 12.795L9.4427 12.795C10.4092 12.795 11.1927 13.5785 11.1927 14.545L11.1927 19.0674C11.1927 20.0339 10.4092 20.8174 9.4427 20.8174L4.9026 20.8174C3.9361 20.8174 3.1526 20.0339 3.1526 19.0674L3.1526 14.545C3.1526 13.5785 3.9361 12.795 4.9026 12.795ZM14.5427 12.8155L19.0828 12.8155C20.0493 12.8155 20.8328 13.599 20.8328 14.5655L20.8328 19.0879C20.8328 20.0544 20.0493 20.8379 19.0828 20.8379L14.5427 20.8379C13.5762 20.8379 12.7927 20.0544 12.7927 19.0879L12.7927 14.5655C12.7927 13.599 13.5762 12.8155 14.5427 12.8155ZM9.7927 14.545C9.7927 14.3517 9.636 14.195 9.4427 14.195L4.9026 14.195C4.7093 14.195 4.5526 14.3517 4.5526 14.545L4.5526 19.0674C4.5526 19.2607 4.7093 19.4174 4.9026 19.4174L9.4427 19.4174C9.636 19.4174 9.7927 19.2607 9.7927 19.0674L9.7927 14.545ZM19.4328 14.5655C19.4328 14.3722 19.2761 14.2155 19.0828 14.2155L14.5427 14.2155C14.3494 14.2155 14.1927 14.3722 14.1927 14.5655L14.1927 19.0879C14.1927 19.2812 14.3494 19.4379 14.5427 19.4379L19.0828 19.4379C19.2761 19.4379 19.4328 19.2812 19.4328 19.0879L19.4328 14.5655Z" fill="rgb(0,0,0)" fill-opacity="0.800000012" fill-rule="evenodd" />
	</g>
</svg>
