<svg viewBox="0 0 24 24" xmlns="http://www.w3.org/2000/svg" xmlns:xlink="http://www.w3.org/1999/xlink" width="24.000000" height="24.000000" fill="none" customFrame="#000000">
	<rect id="icon/01公共图标/线性/链接文件" width="24.000000" height="24.000000" x="0.000000" y="0.000000" />
	<g id="编组 7">
		<rect id="矩形" width="24.000000" height="24.000000" x="0.000000" y="0.000000" fill="rgb(216,216,216)" fill-opacity="0" />
		<rect id="矩形" width="23.000000" height="23.000000" x="0.500000" y="0.500000" stroke="rgb(151,151,151)" stroke-opacity="0" stroke-width="1.000000" />
		<path id="形状结合" d="M4.15615 4.21297C5.59848 2.80087 7.85643 2.68519 9.30316 3.94477L9.45693 4.08684L14.4285 8.95429L14.5665 9.09814C15.6703 10.3246 15.6286 12.2251 14.4538 13.5102L14.312 13.6568L13.7577 14.1994L13.6702 14.2723C13.3946 14.4662 13.0112 14.4376 12.7678 14.1889C12.5243 13.9402 12.5014 13.5514 12.7096 13.2769L12.7931 13.1843L13.3346 12.6544L13.4596 12.5215C14.0903 11.793 14.1393 10.764 13.563 10.0775L13.4525 9.95815L8.47541 5.0852L8.35129 4.97302C7.45724 4.22758 6.04949 4.31857 5.13556 5.21335C4.23598 6.09408 4.13337 7.44432 4.88661 8.3161L5.00176 8.43874L6.93103 10.3277L7.00576 10.4137C7.20547 10.6851 7.18493 11.069 6.94152 11.3176C6.69802 11.5663 6.30974 11.5974 6.03094 11.3951L5.94621 11.3232L4.02526 9.44209L3.88175 9.29308C2.59224 7.87262 2.70014 5.63847 4.15615 4.21297ZM11.1224 9.90042C10.8789 9.6518 10.4956 9.62313 10.22 9.81705L10.1325 9.88994L9.57814 10.4326L9.43639 10.5792C8.26154 11.8642 8.21986 13.7648 9.32371 14.9912L9.46167 15.1351L14.4332 20.0025L14.587 20.1446C16.0338 21.4042 18.2917 21.2885 19.734 19.8764C21.19 18.4509 21.2979 16.2167 20.0084 14.7963L19.8649 14.6473L17.944 12.7662L17.8592 12.6943C17.5804 12.4919 17.1922 12.5231 16.9487 12.7718C16.7053 13.0204 16.6847 13.4042 16.8844 13.6757L16.9591 13.7617L18.8884 15.6506L19.0036 15.7733C19.7568 16.645 19.6542 17.9953 18.7546 18.876C17.8407 19.7708 16.4329 19.8618 15.5389 19.1163L15.4148 19.0042L10.4377 14.1312L10.3272 14.0118C9.75092 13.3253 9.7999 12.2964 10.4306 11.5678L10.5556 11.4349L11.0971 10.9051L11.1806 10.8124C11.3887 10.538 11.3659 10.1491 11.1224 9.90042Z" fill="rgb(0,0,0)" fill-opacity="0.800000012" fill-rule="evenodd" />
	</g>
</svg>
