<svg viewBox="0 0 24 24" xmlns="http://www.w3.org/2000/svg" xmlns:xlink="http://www.w3.org/1999/xlink" width="24.000000" height="24.000000" fill="none" customFrame="#000000">
	<rect id="icon/01公共图标/线性/黑白切换2" width="24.000000" height="24.000000" x="0.000000" y="0.000000" fill="rgb(255,255,255)" fill-opacity="0" />
	<g id="编组 98">
		<rect id="矩形" width="24.000000" height="24.000000" x="0.000000" y="0.000000" fill="rgb(216,216,216)" fill-opacity="0" />
		<rect id="矩形" width="23.000000" height="23.000000" x="0.500000" y="0.500000" stroke="rgb(151,151,151)" stroke-opacity="0" stroke-width="1.000000" />
		<path id="形状结合" d="M12 1.99242C12.3866 1.99242 12.7 2.30582 12.7 2.69242L12.7 3.89242C12.7 4.27902 12.3866 4.59242 12 4.59242C11.6134 4.59242 11.3 4.27902 11.3 3.89242L11.3 2.69242C11.3 2.30582 11.6134 1.99242 12 1.99242ZM5.77932 6.747C6.05268 7.02038 6.4959 7.02038 6.76926 6.747C7.04262 6.47364 7.04262 6.03042 6.76926 5.75706L5.92074 4.90852C5.64736 4.63516 5.20416 4.63516 4.93078 4.90852C4.65742 5.1819 4.65742 5.62512 4.93078 5.89848L5.77932 6.747ZM18.1917 6.747C17.9184 7.02038 17.4751 7.02038 17.2018 6.747C16.9284 6.47364 16.9284 6.03042 17.2018 5.75706L18.0503 4.90852C18.3237 4.63516 18.7669 4.63516 19.0403 4.90852C19.3136 5.1819 19.3136 5.62512 19.0403 5.89848L18.1917 6.747ZM12 5.3C8.29974 5.3 5.30004 8.2997 5.30004 12C5.30004 15.7003 8.29974 18.7 12 18.7C15.7003 18.7 18.7 15.7003 18.7 12C18.7 8.2997 15.7003 5.3 12 5.3ZM12 6.7C14.9271 6.7 17.3 9.0729 17.3 12C17.3 14.9271 14.9271 17.3 12 17.3C9.07294 17.3 6.70004 14.9271 6.70004 12C6.70004 9.0729 9.07294 6.7 12 6.7ZM3.89374 12.6695C4.28034 12.6695 4.59374 12.3561 4.59374 11.9695C4.59374 11.5829 4.28034 11.2695 3.89374 11.2695L2.69374 11.2695C2.30714 11.2695 1.99374 11.5829 1.99374 11.9695C1.99374 12.3561 2.30714 12.6695 2.69374 12.6695L3.89374 12.6695ZM21.277 12.6987C21.6636 12.6987 21.977 12.3853 21.977 11.9987C21.977 11.6121 21.6636 11.2987 21.277 11.2987L20.0771 11.2987C19.6905 11.2987 19.377 11.6121 19.377 11.9987C19.377 12.3853 19.6905 12.6987 20.0771 12.6987L21.277 12.6987ZM18.0504 19.0595C18.3238 19.3329 18.767 19.3329 19.0404 19.0595C19.3137 18.7861 19.3137 18.3429 19.0404 18.0696L18.1919 17.221C17.9185 16.9477 17.4753 16.9477 17.2019 17.221C16.9285 17.4944 16.9285 17.9376 17.2019 18.211L18.0504 19.0595ZM5.92062 19.0595C5.64724 19.3329 5.20402 19.3329 4.93066 19.0595C4.6573 18.7861 4.6573 18.3429 4.93066 18.0696L5.7792 17.221C6.05256 16.9477 6.49578 16.9477 6.76914 17.221C7.0425 17.4944 7.0425 17.9376 6.76914 18.211L5.92062 19.0595ZM11.9708 19.3757C12.3574 19.3757 12.6708 19.6891 12.6708 20.0757L12.6708 21.2757C12.6708 21.6623 12.3574 21.9757 11.9708 21.9757C11.5842 21.9757 11.2708 21.6623 11.2708 21.2757L11.2708 20.0757C11.2708 19.6891 11.5842 19.3757 11.9708 19.3757Z" fill="rgb(0,0,0)" fill-opacity="0.800000012" fill-rule="evenodd" />
	</g>
</svg>
