<svg viewBox="0 0 24 24" xmlns="http://www.w3.org/2000/svg" xmlns:xlink="http://www.w3.org/1999/xlink" width="24.000000" height="24.000000" fill="none" customFrame="#000000">
	<rect id="icon/01公共图标/线性/刷新" width="24.000000" height="24.000000" x="0.000000" y="0.000000" />
	<g id="编组 14">
		<rect id="矩形" width="24.000000" height="24.000000" x="0.000000" y="0.000000" fill="rgb(216,216,216)" fill-opacity="0" />
		<rect id="矩形" width="23.000000" height="23.000000" x="0.500000" y="0.500000" stroke="rgb(151,151,151)" stroke-opacity="0" stroke-width="1.000000" />
		<path id="形状结合" d="M2.84914 9.19133C4.3948 4.13574 9.74616 1.29036 14.8018 2.83601C16.302 3.29468 17.6397 4.09941 18.7283 5.1757L18.7287 3.92544C18.7287 3.57105 18.9921 3.27818 19.3338 3.23183L19.4287 3.22544C19.7831 3.22544 20.076 3.48878 20.1223 3.83045L20.1287 3.92544L20.1287 6.57854C20.1287 7.06574 19.762 7.46727 19.2895 7.52215L19.1787 7.52854L16.5256 7.52854C16.139 7.52854 15.8256 7.21514 15.8256 6.82854C15.8256 6.47416 16.089 6.18128 16.4306 6.13493L16.5256 6.12854L17.7002 6.12827C16.7794 5.23153 15.6542 4.56059 14.3924 4.17484C10.0763 2.85525 5.50756 5.28447 4.18797 9.60065C2.86838 13.9168 5.2976 18.4855 9.61378 19.8051C13.93 21.1247 18.4987 18.6955 19.8183 14.3793C20.2562 12.9469 20.291 11.4547 19.939 10.0333C19.8461 9.65803 20.075 9.27848 20.4502 9.18555C20.8255 9.09261 21.205 9.32149 21.298 9.69675C21.7105 11.3623 21.6696 13.1123 21.1571 14.7886C19.6114 19.8442 14.2601 22.6896 9.20446 21.144C4.14887 19.5983 1.30349 14.2469 2.84914 9.19133Z" fill="rgb(0,0,0)" fill-opacity="0.800000012" fill-rule="evenodd" />
	</g>
</svg>
