<svg viewBox="0 0 24 24" xmlns="http://www.w3.org/2000/svg" xmlns:xlink="http://www.w3.org/1999/xlink" width="24.000000" height="24.000000" fill="none" customFrame="#000000">
	<defs>
		<clipPath id="clipPath_0">
			<rect width="24.000000" height="24.000000" x="0.000000" y="0.000000" fill="rgb(255,255,255)" />
		</clipPath>
	</defs>
	<rect id="转发当前链接" width="24.000000" height="24.000000" x="0.000000" y="0.000000" fill="rgb(255,255,255)" fill-opacity="0" />
	<g id="转发当前链接" clip-path="url(#clipPath_0)" customFrame="url(#clipPath_0)">
		<rect id="转发当前链接" width="24.000000" height="24.000000" x="0.000000" y="0.000000" />
		<path id="形状结合" d="M12.7077 5.2806C12.7077 4.95843 12.4465 4.69727 12.1243 4.69727L6.26823 4.69727C5.34775 4.69727 4.60156 5.44346 4.60156 6.36393L4.60156 17.509C4.60156 18.4295 5.34775 19.1756 6.26823 19.1756L17.622 19.1756C18.5425 19.1756 19.2887 18.4295 19.2887 17.509L19.2887 11.7114C19.2887 11.3892 19.0275 11.1281 18.7053 11.1281C18.3832 11.1281 18.122 11.3892 18.122 11.7114L18.122 17.509C18.122 17.7851 17.8982 18.009 17.622 18.009L6.26823 18.009C5.99209 18.009 5.76823 17.7851 5.76823 17.509L5.76823 6.36393C5.76823 6.08779 5.99209 5.86393 6.26823 5.86393L12.1243 5.86393C12.4465 5.86393 12.7077 5.60276 12.7077 5.2806ZM17.4223 4.70081C18.3428 4.70081 19.089 5.44699 19.089 6.36747L19.089 9.65911C19.089 9.98128 18.8278 10.2424 18.5057 10.2424C18.1835 10.2424 17.9223 9.98128 17.9223 9.65911L17.9223 6.7314L13.812 10.8039C13.5831 11.0307 13.2138 11.0289 12.987 10.8001C12.7603 10.5712 12.762 10.2019 12.9908 9.97515L17.1367 5.86747L14.1307 5.86747C13.8085 5.86747 13.5473 5.6063 13.5473 5.28414C13.5473 4.96197 13.8085 4.70081 14.1307 4.70081L17.4223 4.70081Z" fill="rgb(0,0,0)" fill-opacity="0.800000012" fill-rule="evenodd" />
	</g>
</svg>
