<svg viewBox="0 0 24 24" xmlns="http://www.w3.org/2000/svg" xmlns:xlink="http://www.w3.org/1999/xlink" width="24.000000" height="24.000000" fill="none" customFrame="#000000">
	<rect id="icon/01公共图标/线性/添加" width="24.000000" height="24.000000" x="0.000000" y="0.000000" />
	<g id="编组 27">
		<rect id="矩形" width="24.000000" height="24.000000" x="0.000000" y="0.000000" fill="rgb(216,216,216)" fill-opacity="0" />
		<rect id="矩形" width="23.000000" height="23.000000" x="0.500000" y="0.500000" stroke="rgb(151,151,151)" stroke-opacity="0" stroke-width="1.000000" />
		<path id="形状" d="M3.72158 11.293L3.60804 11.3023C3.27552 11.3571 3.02208 11.6461 3.02258 11.994C3.02308 12.342 3.27734 12.6302 3.61002 12.684L3.72358 12.693L11.3028 12.6832L11.2928 20.2575L11.3018 20.3711C11.3556 20.7038 11.6438 20.958 11.9918 20.9585C12.3784 20.9591 12.6922 20.6461 12.6928 20.2595L12.7166 3.70469L12.7076 3.59113C12.6538 3.25845 12.3655 3.00419 12.0176 3.00369C11.631 3.00313 11.3171 3.31609 11.3166 3.70269L11.3049 11.2824L3.72158 11.293ZM20.2764 11.2692L14.9019 11.2765C14.5151 11.277 14.2016 11.5906 14.2012 11.9775L14.2105 12.0924C14.2651 12.4241 14.5534 12.677 14.9005 12.6765L20.2784 12.6692L20.392 12.6599C20.7245 12.6052 20.9779 12.3162 20.9774 11.9682C20.9769 11.6203 20.7227 11.332 20.39 11.2782L20.2764 11.2692Z" fill="rgb(0,0,0)" fill-opacity="0.800000012" fill-rule="evenodd" />
	</g>
</svg>
