<svg viewBox="0 0 24 24" xmlns="http://www.w3.org/2000/svg" xmlns:xlink="http://www.w3.org/1999/xlink" width="24.000000" height="24.000000" fill="none" customFrame="#000000">
	<rect id="icon/01公共图标/线性/黑白切换" width="24.000000" height="24.000000" x="0.000000" y="0.000000" fill="rgb(255,255,255)" fill-opacity="0" />
	<g id="编组 88">
		<rect id="矩形" width="24.000000" height="24.000000" x="0.000000" y="0.000000" fill="rgb(216,216,216)" fill-opacity="0" />
		<rect id="矩形" width="23.000000" height="23.000000" x="0.500000" y="0.500000" stroke="rgb(151,151,151)" stroke-opacity="0" stroke-width="1.000000" />
		<path id="形状结合" d="M10.7064 2.38646C11.1312 2.32892 11.5632 2.3 12 2.3C17.3572 2.3 21.7 6.64284 21.7 12C21.7 17.3572 17.3572 21.7 12 21.7C7.34882 21.7 3.37764 18.4024 2.48494 13.8939C2.38406 13.3844 2.85362 12.9464 3.35486 13.0824C3.88578 13.2264 4.43724 13.3 5 13.3C8.4794 13.3 11.3 10.4794 11.3 7C11.3 5.7238 10.9205 4.50604 10.2208 3.4726C9.92954 3.0425 10.1917 2.4562 10.7064 2.38646ZM12 3.7L11.9576 3.701L12.0158 3.82248C12.4183 4.70978 12.6505 5.67218 12.6929 6.66718L12.7 7C12.7 11.2526 9.2526 14.7 5 14.7C4.7711 14.7 4.54354 14.69 4.31778 14.6701L4.1316 14.649L4.20756 14.8665C5.35476 17.9901 8.3098 20.1879 11.7356 20.2958L12 20.3C16.584 20.3 20.3 16.584 20.3 12C20.3 7.41604 16.584 3.7 12 3.7Z" fill="rgb(0,0,0)" fill-opacity="0.800000012" fill-rule="evenodd" />
	</g>
</svg>
