<svg viewBox="0 0 24 24" xmlns="http://www.w3.org/2000/svg" xmlns:xlink="http://www.w3.org/1999/xlink" width="24.000000" height="24.000000" fill="none" customFrame="#000000">
	<rect id="icon/01公共图标/线性/下箭头" width="24.000000" height="24.000000" x="0.000000" y="0.000000" />
	<g id="编组 34">
		<rect id="矩形" width="24.000000" height="24.000000" x="0.000000" y="0.000000" fill="rgb(216,216,216)" fill-opacity="0" transform="matrix(0,-1,-1,0,24,24)" />
		<rect id="矩形" width="23.000000" height="23.000000" x="0.500000" y="0.500000" stroke="rgb(151,151,151)" stroke-opacity="0" stroke-width="1.000000" transform="matrix(0,-1,-1,0,24,24)" />
		<path id="路径" d="M0.250616 0.205025C2.94745e-05 0.455612 -0.0208527 0.848918 0.187969 1.12329L0.250616 1.19497L5.26695 6.21131C5.36737 6.31173 5.38172 6.46563 5.30999 6.58133L5.26695 6.63558L0.205025 11.6975C-0.0683418 11.9709 -0.0683418 12.4141 0.205025 12.6875C0.455612 12.938 0.848918 12.9589 1.12329 12.7501L1.19497 12.6875L6.2569 7.62553C6.88585 6.99658 6.91895 5.99741 6.35621 5.32949L6.2569 5.22136L1.24057 0.205025C0.967198 -0.0683418 0.523983 -0.0683418 0.250616 0.205025Z" fill="rgb(0,0,0)" fill-opacity="0.800000012" fill-rule="evenodd" transform="matrix(0,1,1,0,5.55376,8.62259)" />
	</g>
</svg>
