<svg viewBox="0 0 24 24" xmlns="http://www.w3.org/2000/svg" xmlns:xlink="http://www.w3.org/1999/xlink" width="24.000000" height="24.000000" fill="none" customFrame="#000000">
	<rect id="icon/01公共图标/线性/日历" width="24.000000" height="24.000000" x="0.000000" y="0.000000" />
	<g id="编组 3">
		<rect id="矩形" width="24.000000" height="24.000000" x="0.000000" y="0.000000" fill="rgb(216,216,216)" fill-opacity="0" />
		<rect id="矩形" width="23.000000" height="23.000000" x="0.500000" y="0.500000" stroke="rgb(151,151,151)" stroke-opacity="0" stroke-width="1.000000" />
		<path id="形状结合" d="M8.5486 3.59219C8.90299 3.59219 9.19586 3.85554 9.24222 4.19721L9.24861 4.29219L9.24861 7.09605C9.24861 7.48265 8.9352 7.79605 8.5486 7.79605C8.19422 7.79605 7.90135 7.53271 7.855 7.19104L7.84861 7.09605L7.84861 4.29219C7.84861 3.90559 8.16201 3.59219 8.5486 3.59219ZM15.486 3.61776C15.8404 3.61776 16.1333 3.8811 16.1796 4.22277L16.186 4.31776L16.186 7.12161C16.186 7.50821 15.8726 7.82161 15.486 7.82161C15.1316 7.82161 14.8388 7.55827 14.7924 7.2166L14.786 7.12161L14.786 4.31776C14.786 3.93116 15.0994 3.61776 15.486 3.61776ZM6.46341 4.97574C6.85001 4.97574 7.16341 5.28914 7.16341 5.67574C7.16341 6.03012 6.90007 6.323 6.5584 6.36935L6.46341 6.37574L4.47169 6.37574C4.41139 6.37574 4.36022 6.41485 4.34217 6.46908L4.33521 6.51222L4.33521 8.36889L19.6648 8.36889L19.6648 6.51222C19.6648 6.45192 19.6257 6.40075 19.5714 6.3827L19.5283 6.37574L17.4734 6.37574C17.0868 6.37574 16.7734 6.06234 16.7734 5.67574C16.7734 5.32136 17.0367 5.02848 17.3784 4.98213L17.4734 4.97574L19.5283 4.97574C20.3297 4.97574 20.9879 5.58934 21.0585 6.37237L21.0648 6.51222L21.0648 18.8713C21.0648 19.6728 20.4512 20.3309 19.6682 20.4015L19.5283 20.4078L4.47169 20.4078C3.67026 20.4078 3.01214 19.7942 2.94149 19.0112L2.93521 18.8713L2.93521 6.51222C2.93521 5.71079 3.54881 5.05267 4.33184 4.98202L4.47169 4.97574L6.46341 4.97574ZM4.33521 9.76889L4.33521 18.8713C4.33521 18.9316 4.37432 18.9828 4.42855 19.0009L4.47169 19.0078L19.5283 19.0078C19.5886 19.0078 19.6398 18.9687 19.6578 18.9145L19.6648 18.8713L19.6648 9.76889L4.33521 9.76889ZM13.4949 4.97574C13.8815 4.97574 14.1949 5.28914 14.1949 5.67574C14.1949 6.03012 13.9316 6.323 13.5899 6.36935L13.4949 6.37574L10.5302 6.37574C10.1436 6.37574 9.8302 6.06234 9.8302 5.67574C9.8302 5.32136 10.0935 5.02848 10.4352 4.98213L10.5302 4.97574L13.4949 4.97574ZM16.1824 12.0854C16.569 12.0854 16.8824 12.3988 16.8824 12.7854C16.8824 13.1398 16.619 13.4326 16.2774 13.479L16.1824 13.4854L7.81761 13.4854C7.43101 13.4854 7.1176 13.172 7.1176 12.7854C7.1176 12.431 7.38095 12.1381 7.72262 12.0918L7.81761 12.0854L16.1824 12.0854ZM16.1824 15.4313C16.569 15.4313 16.8824 15.7447 16.8824 16.1313C16.8824 16.4857 16.619 16.7786 16.2774 16.8249L16.1824 16.8313L7.81761 16.8313C7.43101 16.8313 7.1176 16.5179 7.1176 16.1313C7.1176 15.7769 7.38095 15.484 7.72262 15.4377L7.81761 15.4313L16.1824 15.4313Z" fill="rgb(0,0,0)" fill-opacity="0.800000012" fill-rule="evenodd" />
	</g>
</svg>
