<svg viewBox="0 0 24 24" xmlns="http://www.w3.org/2000/svg" xmlns:xlink="http://www.w3.org/1999/xlink" width="24.000000" height="24.000000" fill="none" customFrame="#000000">
	<rect id="icon/01公共图标/线性/筛选" width="24.000000" height="24.000000" x="0.000000" y="0.000000" />
	<g id="编组 5">
		<rect id="矩形" width="24.000000" height="24.000000" x="0.000000" y="0.000000" fill="rgb(216,216,216)" fill-opacity="0" />
		<path id="路径" d="M18.2949 3.20009C19.1896 3.20009 19.8999 3.94805 19.8999 4.85315C19.8999 5.16248 19.8157 5.46512 19.6575 5.72685L19.5723 5.85415L18.096 7.85306C17.8663 8.16403 17.428 8.22993 17.117 8.00025C16.8343 7.79145 16.7542 7.41025 16.9145 7.10902L16.9698 7.02131L18.4462 5.02239C18.4804 4.97614 18.4999 4.91614 18.4999 4.85315C18.4999 4.73013 18.4304 4.63641 18.3465 4.60858L18.2949 4.60009L5.70516 4.60009C5.66652 4.60009 5.62751 4.61418 5.59307 4.64239C5.50594 4.71375 5.4768 4.84885 5.51949 4.95958L5.55384 5.02239L10.5636 11.8053C10.745 12.0509 10.8551 12.3427 10.8837 12.6469L10.8912 12.7999L10.9095 17.7183C10.9097 17.7839 10.931 17.8448 10.9661 17.8903L11.0056 17.9305L12.8213 19.3602C12.8552 19.3868 12.8932 19.4001 12.9309 19.3999C13.0184 19.3995 13.1024 19.3258 13.1276 19.2158L13.1353 19.1457L13.1113 12.8094C13.1102 12.4982 13.1943 12.1934 13.3532 11.93L13.4389 11.8019L15.5877 8.89262C15.8174 8.58165 16.2557 8.51575 16.5666 8.74543C16.8493 8.95423 16.9295 9.33544 16.7692 9.63666L16.7138 9.72437L14.565 12.6337C14.5421 12.6647 14.5258 12.7019 14.5175 12.7421L14.5113 12.8041L14.5353 19.1404C14.5387 20.0454 13.8314 20.7961 12.9367 20.7999C12.632 20.8012 12.335 20.7132 12.0794 20.5487L11.9552 20.4601L10.1395 19.0304C9.78662 18.7526 9.56478 18.3397 9.5185 17.8926L9.50947 17.7235L9.49116 12.8051C9.49101 12.7634 9.48228 12.723 9.46641 12.6871L9.43745 12.637L4.4277 5.85415C3.90034 5.14013 4.02143 4.11998 4.70598 3.55931C4.9488 3.36043 5.24212 3.23857 5.55011 3.20781L5.70516 3.20009L18.2949 3.20009Z" fill="rgb(0,0,0)" fill-opacity="0.800000012" fill-rule="evenodd" />
	</g>
</svg>
