<svg viewBox="0 0 24 24" xmlns="http://www.w3.org/2000/svg" xmlns:xlink="http://www.w3.org/1999/xlink" width="24.000000" height="24.000000" fill="none" customFrame="#000000">
	<rect id="icon/01公共图标/线性/搜索" width="24.000000" height="24.000000" x="0.000000" y="0.000000" />
	<g id="编组 29">
		<rect id="矩形" width="24.000000" height="24.000000" x="0.000000" y="0.000000" fill="rgb(216,216,216)" fill-opacity="0" />
		<rect id="矩形" width="23.000000" height="23.000000" x="0.500000" y="0.500000" stroke="rgb(151,151,151)" stroke-opacity="0" stroke-width="1.000000" />
		<path id="形状结合" d="M10.8209 3.45424C6.72148 3.45424 3.39822 6.7775 3.39822 10.8769C3.39822 14.9764 6.72148 18.2996 10.8209 18.2996C14.9203 18.2996 18.2436 14.9764 18.2436 10.8769C18.2436 6.7775 14.9203 3.45424 10.8209 3.45424ZM10.8209 4.85424C14.1471 4.85424 16.8436 7.55068 16.8436 10.8769C16.8436 14.2032 14.1471 16.8996 10.8209 16.8996C7.49466 16.8996 4.79822 14.2032 4.79822 10.8769C4.79822 7.55068 7.49466 4.85424 10.8209 4.85424ZM17.5489 16.5227C17.2751 16.3263 16.8915 16.3513 16.6458 16.5977C16.3728 16.8714 16.3733 17.3146 16.647 17.5876L19.4074 20.3413L19.4943 20.415C19.7681 20.6115 20.1516 20.5865 20.3974 20.3401C20.6704 20.0664 20.6699 19.6232 20.3962 19.3502L17.6357 16.5965L17.5489 16.5227Z" fill="rgb(0,0,0)" fill-opacity="0.800000012" fill-rule="evenodd" />
	</g>
</svg>
