<svg viewBox="0 0 24 24" xmlns="http://www.w3.org/2000/svg" xmlns:xlink="http://www.w3.org/1999/xlink" width="24.000000" height="24.000000" fill="none" customFrame="#000000">
	<rect id="icon/01公共图标/线性/时间" width="24.000000" height="24.000000" x="0.000000" y="0.000000" />
	<g id="编组 12">
		<rect id="矩形" width="24.000000" height="24.000000" x="0.000000" y="0.000000" fill="rgb(216,216,216)" fill-opacity="0" />
		<rect id="矩形" width="23.000000" height="23.000000" x="0.500000" y="0.500000" stroke="rgb(151,151,151)" stroke-opacity="0" stroke-width="1.000000" />
		<path id="形状结合" d="M16.6135 3.45786C15.2082 2.69737 13.6325 2.29337 12 2.29337C6.63917 2.29337 2.29337 6.63917 2.29337 12C2.29337 17.3608 6.63917 21.7066 12 21.7066C17.3608 21.7066 21.7066 17.3608 21.7066 12C21.7066 9.58944 20.8237 7.31427 19.2537 5.5498C18.9967 5.26099 18.5542 5.2352 18.2654 5.49219C17.9766 5.74918 17.9508 6.19165 18.2078 6.48046C19.5519 7.991 20.3066 9.93591 20.3066 12C20.3066 16.5876 16.5876 20.3066 12 20.3066C7.41237 20.3066 3.69337 16.5876 3.69337 12C3.69337 7.41237 7.41237 3.69337 12 3.69337C13.3984 3.69337 14.7452 4.03871 15.9472 4.68914C16.2872 4.87313 16.712 4.74666 16.896 4.40665C17.08 4.06664 16.9535 3.64186 16.6135 3.45786ZM12.0004 5.66779C12.3548 5.66779 12.6477 5.93113 12.694 6.27281L12.7004 6.36779L12.7004 12.3439L9.4541 15.3911C9.17223 15.6557 8.72924 15.6417 8.46465 15.3598C8.22652 15.1061 8.21406 14.7219 8.41943 14.4547L8.49595 14.3703L11.3 11.737L11.3004 6.36779C11.3004 6.01341 11.5637 5.72053 11.9054 5.67418L12.0004 5.66779Z" fill="rgb(0,0,0)" fill-opacity="0.800000012" fill-rule="evenodd" />
	</g>
</svg>
