<svg viewBox="0 0 24 24" xmlns="http://www.w3.org/2000/svg" xmlns:xlink="http://www.w3.org/1999/xlink" width="24.000000" height="24.000000" fill="none" customFrame="#000000">
	<rect id="icon/01公共图标/线性/删除" width="24.000000" height="24.000000" x="0.000000" y="0.000000" />
	<g id="编组 21">
		<rect id="矩形" width="24.000000" height="24.000000" x="0.000000" y="0.000000" fill="rgb(216,216,216)" fill-opacity="0" />
		<rect id="矩形" width="23.000000" height="23.000000" x="0.500000" y="0.500000" stroke="rgb(151,151,151)" stroke-opacity="0" stroke-width="1.000000" />
		<path id="形状结合" d="M14.3523 3.88892C14.3523 3.50232 14.0389 3.18892 13.6523 3.18892L9.67986 3.18892L9.58487 3.19531C9.2432 3.24166 8.97986 3.53454 8.97986 3.88892C8.97986 4.27552 9.29326 4.58892 9.67986 4.58892L13.6523 4.58892L13.7473 4.58253C14.089 4.53618 14.3523 4.2433 14.3523 3.88892ZM19.1539 5.29487C19.5405 5.29487 19.8539 5.60827 19.8539 5.99487C19.8539 6.34925 19.5905 6.64213 19.2489 6.68848L19.1539 6.69487L6.95387 6.69487L6.95387 19.1065C6.95387 19.2762 7.07425 19.4178 7.23428 19.4505L7.30506 19.4576L16.6949 19.4576C16.8647 19.4576 17.0063 19.3373 17.039 19.1772L17.0461 19.1065L17.0461 8.63688C17.0461 8.25028 17.3595 7.93688 17.7461 7.93688C18.1005 7.93688 18.3934 8.20023 18.4397 8.5419L18.4461 8.63688L18.4461 19.1065C18.4461 20.0253 17.7385 20.7788 16.8386 20.8518L16.6949 20.8576L7.30506 20.8576C6.38626 20.8576 5.63273 20.1501 5.55967 19.2501L5.55387 19.1065L5.55387 6.69487L4.84613 6.69487C4.45953 6.69487 4.14613 6.38147 4.14613 5.99487C4.14613 5.64048 4.40948 5.34761 4.75115 5.30126L4.84613 5.29487L19.1539 5.29487ZM10.0109 9.7444C10.3652 9.7444 10.6581 10.0077 10.7045 10.3494L10.7109 10.4444L10.7109 16.124C10.7109 16.5106 10.3975 16.824 10.0109 16.824C9.65648 16.824 9.3636 16.5607 9.31725 16.219L9.31086 16.124L9.31086 10.4444C9.31086 10.0578 9.62426 9.7444 10.0109 9.7444ZM14.6464 10.3494C14.6001 10.0077 14.3072 9.7444 13.9528 9.7444C13.5662 9.7444 13.2528 10.0578 13.2528 10.4444L13.2528 16.124L13.2592 16.219C13.3056 16.5607 13.5984 16.824 13.9528 16.824C14.3394 16.824 14.6528 16.5106 14.6528 16.124L14.6528 10.4444L14.6464 10.3494Z" fill="rgb(0,0,0)" fill-opacity="0.800000012" fill-rule="evenodd" />
	</g>
</svg>
