<svg viewBox="0 0 24 24" xmlns="http://www.w3.org/2000/svg" xmlns:xlink="http://www.w3.org/1999/xlink" width="24.000000" height="24.000000" fill="none" customFrame="#000000">
	<rect id="icon/01公共图标/线性/关闭" width="24.000000" height="24.000000" x="0.000000" y="0.000000" />
	<g id="编组 25">
		<rect id="矩形" width="24.000000" height="24.000000" x="0.000000" y="0.000000" fill="rgb(216,216,216)" fill-opacity="0" />
		<path id="形状结合" d="M18.5283 5.4717C18.2549 5.19834 17.8117 5.19834 17.5384 5.4717L11.9996 11.0105L6.46165 5.4717L6.37487 5.3979C6.10133 5.20108 5.71773 5.22568 5.47169 5.4717C5.22567 5.71774 5.20107 6.10134 5.39789 6.37488L5.47169 6.46166L11.0105 11.9996L5.47169 17.5384L5.39789 17.6251C5.20107 17.8987 5.22567 18.2823 5.47169 18.5283C5.74507 18.8017 6.18827 18.8017 6.46165 18.5283L12.0005 12.9895L12.0057 12.9947L12.9947 12.0057L12.9895 12.0005L18.5283 6.46166L18.6021 6.37488C18.7989 6.10134 18.7743 5.71774 18.5283 5.4717ZM14.5507 13.5607L18.5283 17.5384L18.6021 17.6251C18.7989 17.8987 18.7743 18.2823 18.5283 18.5283C18.2823 18.7743 17.8987 18.7989 17.6251 18.6021L17.5384 18.5283L13.5607 14.5507C13.2873 14.2773 13.2873 13.8341 13.5607 13.5607C13.8341 13.2873 14.2773 13.2873 14.5507 13.5607Z" fill="rgb(0,0,0)" fill-opacity="0.800000012" fill-rule="evenodd" />
	</g>
</svg>
