<svg viewBox="0 0 24 24" xmlns="http://www.w3.org/2000/svg" xmlns:xlink="http://www.w3.org/1999/xlink" width="24.000000" height="24.000000" fill="none" customFrame="#000000">
	<rect id="icon/01公共图标/线性/提示" width="24.000000" height="24.000000" x="0.000000" y="0.000000" />
	<g id="编组">
		<rect id="矩形" width="24.000000" height="24.000000" x="0.000000" y="0.000000" fill="rgb(216,216,216)" fill-opacity="0" />
		<rect id="矩形" width="23.000000" height="23.000000" x="0.500000" y="0.500000" stroke="rgb(151,151,151)" stroke-opacity="0" stroke-width="1.000000" />
		<path id="形状结合" d="M12.0312 2.34969C13.6625 2.34969 15.2371 2.75343 16.6415 3.51339C16.9815 3.69739 17.108 4.12218 16.924 4.46218C16.74 4.80219 16.3152 4.92867 15.9752 4.74467C14.7742 4.09476 13.4284 3.74969 12.0312 3.74969C7.44721 3.74969 3.73118 7.46573 3.73118 12.0497C3.73118 16.6337 7.44721 20.3497 12.0312 20.3497C16.6151 20.3497 20.3312 16.6337 20.3312 12.0497C20.3312 9.98725 19.577 8.04389 18.234 6.53456C17.977 6.24575 18.0028 5.80329 18.2916 5.54629C18.5804 5.2893 19.0229 5.31509 19.2799 5.60391C20.8489 7.36716 21.7312 9.64078 21.7312 12.0497C21.7312 17.4069 17.3883 21.7497 12.0312 21.7497C6.67402 21.7497 2.33118 17.4069 2.33118 12.0497C2.33118 6.69253 6.67401 2.34969 12.0312 2.34969ZM13.1333 7.65356C13.1333 8.27889 12.6253 8.78685 12 8.78685C11.3747 8.78685 10.8667 8.27889 10.8667 7.65356C10.8667 7.02823 11.3747 6.52027 12 6.52027C12.6253 6.52027 13.1333 7.02823 13.1333 7.65356ZM12.7065 9.99663C12.6614 9.65479 12.3695 9.39036 12.0151 9.38905C11.6285 9.38762 11.314 9.69985 11.3125 10.0864L11.2875 16.85L11.2935 16.945C11.3386 17.2869 11.6305 17.5513 11.9849 17.5526C12.3715 17.5541 12.686 17.2418 12.6875 16.8552L12.7125 10.0916L12.7065 9.99663Z" fill="rgb(0,0,0)" fill-opacity="0.800000012" fill-rule="evenodd" />
	</g>
</svg>
