<svg viewBox="0 0 24 24" xmlns="http://www.w3.org/2000/svg" xmlns:xlink="http://www.w3.org/1999/xlink" width="24.000000" height="24.000000" fill="none" customFrame="#000000">
	<rect id="icon/01公共图标/面性/箭头-筛选" width="24.000000" height="24.000000" x="0.000000" y="0.000000" />
	<g id="编组 39">
		<rect id="矩形" width="24.000000" height="24.000000" x="0.000000" y="0.000000" fill="rgb(216,216,216)" fill-opacity="0" />
		<rect id="矩形" width="23.000000" height="23.000000" x="0.500000" y="0.500000" stroke="rgb(151,151,151)" stroke-opacity="0" stroke-width="1.000000" />
		<path id="形状结合" d="M16.3167 10.1801L12.3842 5.46116C12.1843 5.22128 11.8159 5.22128 11.616 5.46116L7.6835 10.1801C7.41211 10.5058 7.64369 11.0002 8.06761 11.0002L15.9326 11.0002C16.3565 11.0002 16.5881 10.5058 16.3167 10.1801ZM16.3167 13.8203L12.3842 18.5393C12.1843 18.7792 11.8159 18.7792 11.616 18.5393L7.6835 13.8203C7.41211 13.4947 7.64369 13.0002 8.06761 13.0002L15.9326 13.0002C16.3565 13.0002 16.5881 13.4947 16.3167 13.8203Z" fill="rgb(48,48,48)" fill-rule="evenodd" />
	</g>
</svg>
